<svg xmlns="http://www.w3.org/2000/svg" fill="none" viewBox="0 0 72 33" height="33" width="72">
<g clip-path="url(#clip0_75_1189)">
<path fill="#F9F4E7" d="M9.3839 28.6749C9.52735 29.1563 9.72394 29.5637 9.97897 29.9024C10.2074 30.1828 10.319 30.4791 10.319 30.7913C10.319 31.0717 10.2127 31.3151 10.0002 31.5108C9.78769 31.7066 9.52735 31.8071 9.21388 31.8071H1.86052C1.52048 31.8071 1.2442 31.7066 1.03168 31.5108C0.819153 31.3151 0.712891 31.0717 0.712891 30.7913C0.712891 30.4791 0.824466 30.1828 1.05293 29.9024C1.30796 29.5637 1.50454 29.1563 1.648 28.6749C1.79145 28.1934 1.86052 27.4209 1.86052 26.3468V8.44205C1.86052 7.36797 1.79145 6.5849 1.648 6.09284C1.50454 5.60078 1.30796 5.18279 1.05293 4.84416C0.824466 4.56374 0.712891 4.26744 0.712891 3.95527C0.712891 3.64311 0.819153 3.39972 1.03168 3.21453C1.2442 3.02935 1.52048 2.9394 1.86052 2.9394C2.5406 2.9394 3.13567 2.81771 3.64573 2.57961C4.15579 2.34152 4.69241 2.00818 5.26092 1.5849C5.82942 1.21982 6.28635 0.944692 6.64233 0.759507C6.99831 0.574322 7.4021 0.484375 7.85372 0.484375C8.22032 0.484375 8.5338 0.611359 8.78883 0.865327C9.04386 1.1193 9.17137 1.43146 9.17137 1.79654V26.3468C9.17137 27.4209 9.24044 28.1934 9.3839 28.6749Z"></path>
<path fill="#F9F4E7" d="M13.8264 15.5945C14.889 13.8749 16.3341 12.5045 18.1619 11.4887C19.9896 10.4728 21.982 9.96484 24.1338 9.96484C26.2856 9.96484 28.2727 10.4728 30.0845 11.4887C31.8963 12.5045 33.3361 13.8749 34.3987 15.5945C35.4614 17.314 35.9927 19.1924 35.9927 21.2241C35.9927 23.2558 35.4614 25.1342 34.3987 26.8537C33.3361 28.5733 31.8963 29.9437 30.0845 30.9596C28.2727 31.9754 26.2856 32.4834 24.1338 32.4834C21.982 32.4834 19.9896 31.9754 18.1619 30.9596C16.3341 29.9437 14.889 28.5733 13.8264 26.8537C12.7637 25.1342 12.2324 23.2558 12.2324 21.2241C12.2324 19.1924 12.7637 17.314 13.8264 15.5945ZM20.1596 13.7532C19.6655 14.7532 19.4158 16.0442 19.4158 17.6262C19.4158 19.0918 19.6283 20.658 20.0533 22.3246C20.675 24.5839 21.5569 26.4569 22.6886 27.9543C23.8203 29.4516 24.9255 30.1976 26.004 30.1976C26.9126 30.1976 27.6139 29.695 28.108 28.695C28.6021 27.695 28.8519 26.3723 28.8519 24.7373C28.8519 23.2717 28.6393 21.732 28.2143 20.1236C27.5926 17.8643 26.7107 15.9913 25.579 14.4939C24.4473 12.9966 23.3262 12.2506 22.2211 12.2506C21.3444 12.2506 20.6537 12.7532 20.1596 13.7532Z"></path>
<path fill="#F9F4E7" d="M46.5753 28.6749C46.7188 29.1563 46.9153 29.5637 47.1704 29.9024C47.3988 30.1828 47.5104 30.4791 47.5104 30.7913C47.5104 31.0717 47.4042 31.3151 47.1916 31.5108C46.9791 31.7066 46.7188 31.8071 46.4053 31.8071H39.0519C38.7119 31.8071 38.4356 31.7066 38.2231 31.5108C38.0106 31.3151 37.9043 31.0717 37.9043 30.7913C37.9043 30.4791 38.0159 30.1828 38.2443 29.9024C38.4994 29.5637 38.696 29.1563 38.8394 28.6749C38.9829 28.1934 39.0519 27.4209 39.0519 26.3468V8.44205C39.0519 7.36797 38.9829 6.5849 38.8394 6.09284C38.696 5.60078 38.4994 5.18279 38.2443 4.84416C38.0159 4.56374 37.9043 4.26744 37.9043 3.95527C37.9043 3.64311 38.0106 3.39972 38.2231 3.21453C38.4356 3.02935 38.7119 2.9394 39.0519 2.9394C39.732 2.9394 40.3271 2.81771 40.8371 2.57961C41.3472 2.34152 41.8838 2.00818 42.4523 1.5849C43.0208 1.21982 43.4778 0.944692 43.8337 0.759507C44.1897 0.574322 44.5935 0.484375 45.0451 0.484375C45.4117 0.484375 45.7252 0.611359 45.9802 0.865327C46.2353 1.1193 46.3628 1.43146 46.3628 1.79654V26.3468C46.3628 27.4209 46.4318 28.1934 46.5753 28.6749Z"></path>
<path fill="#F9F4E7" d="M70.6763 28.4622C70.9048 28.4622 71.0854 28.5416 71.2289 28.695C71.3723 28.8484 71.4414 29.0707 71.4414 29.3511C71.4414 29.7479 71.2235 30.1342 70.7826 30.5151C70.3416 30.8961 69.7678 31.2082 69.0611 31.4463C68.3545 31.6844 67.5894 31.8061 66.7658 31.8061C65.4641 31.8061 64.3802 31.441 63.5142 30.7056C62.6482 29.9701 62.2178 28.9701 62.2178 27.7003V18.1342C61.7928 18.6156 60.9161 19.3458 59.5825 20.3352C57.6857 21.6633 56.7347 23.4834 56.7347 25.7955C56.7347 26.785 56.9259 27.6209 57.3085 28.3141C57.691 29.0072 58.1798 29.3511 58.7749 29.3511C59.1415 29.3511 59.5134 29.2082 59.88 28.9278C60.0235 28.8431 60.151 28.8008 60.2626 28.8008C60.406 28.8008 60.5389 28.859 60.6664 28.9701C60.7939 29.0812 60.8577 29.2241 60.8577 29.3934C60.8577 29.6474 60.7992 29.8431 60.6876 29.986C59.4975 31.6527 57.6698 32.4834 55.2045 32.4834C53.4777 32.4834 52.0804 31.9543 51.0178 30.8961C49.9551 29.8379 49.4238 28.4463 49.4238 26.7267C49.4238 25.0072 50.1092 23.4887 51.4853 22.3458C52.8614 21.2029 54.6254 20.1394 56.7772 19.15C58.3658 18.4463 59.5613 17.695 60.3688 16.9066C61.1764 16.1183 61.5802 15.2294 61.5802 14.24C61.5802 13.6209 61.3305 13.0918 60.8364 12.6527C60.3423 12.2135 59.6941 11.9966 58.9024 11.9966C57.7973 11.9966 56.9472 12.3088 56.3521 12.9278C55.7571 13.5469 55.4595 14.367 55.4595 15.3828C55.4595 16.1183 55.247 16.6368 54.822 16.949C54.3969 17.2611 53.8709 17.4146 53.2493 17.4146C52.6808 17.4146 52.1866 17.2241 51.7616 16.8432C51.3366 16.4622 51.124 15.949 51.124 15.2982C51.124 14.4781 51.4641 13.6527 52.1441 12.822C52.8242 11.9913 53.754 11.3035 54.9282 10.7691C56.1024 10.2347 57.4307 9.96484 58.9024 9.96484C61.0277 9.96484 62.8926 10.3617 64.4918 11.15C66.0911 11.9384 67.3343 13.0495 68.211 14.4728C69.0877 15.8961 69.5287 17.5416 69.5287 19.404V27.3617C69.5287 27.7849 69.5924 28.0971 69.7199 28.2929C69.8475 28.4887 70.0812 28.5627 70.4213 28.5045L70.6763 28.4622Z"></path>
</g>
<defs>
<clipPath id="clip0_75_1189">
<rect transform="translate(0.714844 0.484375)" fill="white" height="32" width="70.7282"></rect>
</clipPath>
</defs>
</svg>
