<?xml version="1.0" encoding="utf-8"?>
<!-- Generator: Adobe Illustrator 27.1.1, SVG Export Plug-In . SVG Version: 6.00 Build 0)  -->
<svg version="1.1" id="Layer_1" xmlns="http://www.w3.org/2000/svg" xmlns:xlink="http://www.w3.org/1999/xlink" x="0px"
	y="0px" viewBox="0 0 738 169.9" style="enable-background:new 0 0 738 169.9;" xml:space="preserve">
	<style type="text/css">
		.st {
			fill: #ffffff;
		}
	</style>
	<g>
		<g>
			<path class="st" d="M265.9,120.8c0,1.5-0.6,2.2-2.1,2.2H257c-1.5,0-2.1-0.7-2.1-2.2V67.9c-0.2,0.6-1.7,5.9-2.8,8.5l-13.4,32.4
			c-0.6,1.5-1.5,2.3-2.9,2.3h-6c-1.5,0-2.2-0.9-2.8-2.3L212.8,75c-1.2-2.5-2.1-6.6-2.2-6.9v52.7c0,1.5-0.6,2.2-2.1,2.2h-6.5
			c-1.5,0-2.1-0.7-2.1-2.2v-74c0-1.5,0.6-2.2,2.1-2.2h6.5c1,0,1.6,0.5,2,1.3l20,46.4c0.8,2,2.3,6.5,2.4,6.9c0.1-0.5,1.7-4.8,2.5-6.8
			L255,45.6c0.3-0.8,0.9-1,2-1h6.8c1.5,0,2.1,0.7,2.1,2.2V120.8z" />
			<path class="st" d="M275.2,80.7c0-9.5,6.8-15.8,23.1-15.8c16.3,0,23.1,6.3,23.1,15.8v27.4c0,9.5-6.8,15.8-23.1,15.8
			c-16.3,0-23.1-6.3-23.1-15.8V80.7z M310.4,81.6c0-5-3.5-7.7-12.1-7.7c-8.6,0-12.1,2.8-12.1,7.7v25.6c0,5,3.5,7.7,12.1,7.7
			c8.6,0,12.1-2.8,12.1-7.7V81.6z" />
			<path class="st"
				d="M341.6,104.3c0,6.2,3.1,10,12.3,10s11.9-3.8,11.9-10V46.9c0-1.6,0.6-2.3,2.1-2.3h7c1.6,0,2.2,0.7,2.2,2.3
			v59.3c0,9.5-4.8,17.8-23.2,17.8c-18.2,0-23.4-8.3-23.4-17.8v-5.9c0-1.6,0.6-2.3,2.2-2.3h6.8c1.6,0,2.1,0.7,2.1,2.3V104.3z" />
			<path class="st" d="M385.9,80.7c0-9.5,6.8-15.8,23.1-15.8c16.3,0,23.1,6.3,23.1,15.8v27.4c0,9.5-6.8,15.8-23.1,15.8
			c-16.3,0-23.1-6.3-23.1-15.8V80.7z M421.1,81.6c0-5-3.5-7.7-12.1-7.7s-12.1,2.8-12.1,7.7v25.6c0,5,3.5,7.7,12.1,7.7
			s12.1-2.8,12.1-7.7V81.6z" />
			<path class="st" d="M493.8,44.6c1.5,0,2.3,0.7,2.8,2.2l22.4,74c0.5,1.4-0.1,2.2-1.7,2.2h-7.3c-1.5,0-2.2-0.8-2.5-2.2l-5.4-17.9
			h-24.3l-5.3,17.9c-0.3,1.4-1,2.2-2.5,2.2h-6.7c-1.5,0-2.1-0.8-1.6-2.2l22.4-74c0.5-1.5,1.3-2.2,2.8-2.2H493.8z M493.1,73
			c-1.4-4.3-3-15.6-3.1-16.8c-0.2,1-1.7,11.6-3.2,16.6L480.1,94h19.4L493.1,73z" />
			<path class="st" d="M567.7,80.7v2.1c0,1.6-0.6,2.2-2.1,2.2h-6.2c-1.6,0-2.2-0.6-2.2-2.2v-1.3c0-4.8-2.7-7.6-11.4-7.6
			c-8.6,0-11.3,2.8-11.3,7.6v25.8c0,4.8,2.7,7.6,11.3,7.6c8.8,0,11.4-2.8,11.4-7.6V105c0-1.5,0.6-2.2,2.2-2.2h6.2
			c1.5,0,2.1,0.7,2.1,2.2v3.1c0,9.5-5.9,15.8-22.1,15.8c-16.3,0-22-6.3-22-15.8V80.7c0-9.5,5.9-15.8,22.1-15.8
			C561.9,64.9,567.7,71.2,567.7,80.7z" />
			<path class="st" d="M604,66c1.5,0,2.2,0.6,2.2,2.1v4.6c0,1.6-0.7,2.3-2.2,2.3h-11.9v31c0,4.8,3,7.6,11.6,7.6h2.2
			c1.5,0,2.2,0.7,2.2,2.3v4.8c0,1.6-0.7,2.2-2.2,2.2h-3.8c-16.3,0-21.1-5.7-21.1-15.8V75h-6.3c-1.6,0-2.2-0.7-2.2-2.3v-4
			c0-1.5,0.6-2.1,2.2-2.2l5.7-0.5h0.7V54.4c0-1.6,0.7-2.3,2.2-2.3h6.8c1.5,0,2.1,0.7,2.1,2.3V66H604z" />
			<path class="st" d="M625.4,55.1c0,1.5-0.6,2.2-2.1,2.2h-6.7c-1.6,0-2.2-0.7-2.2-2.2V44.7c0-1.6,0.6-2.3,2.2-2.3h6.7
			c1.5,0,2.1,0.7,2.1,2.3V55.1z M625.4,120.7c0,1.6-0.6,2.3-2.1,2.3h-6.7c-1.6,0-2.2-0.7-2.2-2.3V68.1c0-1.6,0.6-2.3,2.2-2.3h6.7
			c1.5,0,2.1,0.7,2.1,2.3V120.7z" />
			<path class="st" d="M653.1,123c-1.5,0-1.8-0.6-2.3-2.1l-17.8-52.8c-0.5-1.5,0.5-2.3,2-2.3h7c1.5,0,2.1,0.9,2.5,2.3l11,33.1
			c1,3.2,1.6,7.7,1.7,8.5c0.1-0.8,0.9-5.7,2-8.4l11.5-33.2c0.5-1.4,0.9-2.3,2.4-2.3h6.3c1.5,0,2.4,0.8,2,2.3L663,120.9
			c-0.5,1.5-0.8,2.1-2.2,2.1H653.1z" />
			<path class="st" d="M729,94.8c0,1.4-0.6,2.1-2,2.1h-31.4v10.6c0,4.7,2.3,7.7,11.5,7.7c9.2,0,11.5-3,11.5-7.7v-1.3
			c0-1.5,0.6-2.2,2.2-2.2h5.9c1.5,0,2.2,0.7,2.2,2.2v2c0,9.5-5.7,15.8-22,15.8c-16.4,0-22-6.3-22-15.8V80.7
			c0-9.5,5.9-15.8,22.3-15.8c16.3,0,21.8,6.3,21.8,15.8V94.8z M695.7,88.6h23.1v-7.3c0-4.6-2.9-7.7-11.5-7.7
			c-8.8,0-11.5,3.1-11.5,7.7V88.6z" />
		</g>
		<g>
			<g>
				<path class="st" d="M99.2,76.9L99.2,76.9L99.2,76.9 M84.6,83.9l-11.1,23.8l-14.4,30.8c-4.1-7.4-8-13.1-11.7-16.8
				c-3.7-3.7-9.5-7.7-17-11.7l30.5-14.7L84.6,83.9 M96.5,66c-0.8,0-1.5,0.1-2.3,0.5L56,84.9l-44.7,21.5c-3.1,1.5-3.1,5.9,0,7.2
				c8.6,3.7,21.8,10.1,28,16.2c6.1,6.1,12.6,19.2,16.4,27.7c0.7,1.5,2,2.3,3.4,2.3c1.5,0,3-0.7,3.8-2.3l21-44.9l18-38.5
				C103.6,70.3,100.3,66.1,96.5,66L96.5,66z" />
			</g>
			<g>
				<g>
					<path class="st" d="M98.4,37.3c-3.1-0.1-5.6-2.6-5.6-5.7l-0.1-16.8c0-3.2,2.6-5.8,5.7-5.8c3.2,0,5.8,2.6,5.8,5.7l0.1,16.8
					c0,3.2-2.6,5.8-5.7,5.8C98.5,37.3,98.5,37.3,98.4,37.3z" />
				</g>
				<g>
					<path class="st" d="M75,52.8c-1.4,0-2.8-0.6-3.9-1.7L50.3,30.4c-2.3-2.2-2.3-5.9,0-8.1c2.2-2.3,5.9-2.3,8.1,0L79.2,43
					c2.3,2.2,2.3,5.9,0,8.1C78.1,52.3,76.5,52.8,75,52.8z" />
				</g>
				<g>
					<path class="st" d="M142.8,120.3c-1.4,0-2.8-0.6-3.9-1.7l-20.8-20.8c-2.3-2.2-2.3-5.9,0-8.1c2.2-2.3,5.9-2.3,8.1,0l20.8,20.8
					c2.3,2.2,2.3,5.9,0,8.1C145.9,119.8,144.3,120.4,142.8,120.3z" />
				</g>
				<g>
					<path class="st" d="M121.9,52.7c-1.4,0-2.8-0.6-3.9-1.7c-2.3-2.2-2.3-5.9,0-8.1L138.7,22c2.2-2.3,5.9-2.3,8.1,0
					c2.3,2.2,2.3,5.9,0,8.1L126.1,51C124.9,52.2,123.4,52.7,121.9,52.7z" />
				</g>
				<g>
					<path class="st" d="M137.4,76.2c-3.1-0.1-5.6-2.6-5.6-5.7c0-3.2,2.6-5.8,5.7-5.8l16.9-0.1c3.2,0,5.8,2.6,5.8,5.7
					c0,3.2-2.6,5.8-5.7,5.8l-16.9,0.1C137.5,76.2,137.4,76.2,137.4,76.2z" />
				</g>
			</g>
		</g>
		<g>
			<path class="st" d="M361,138.2l-4.4,22.3h-4.8l2.6-13.3l-8.5,10.9h-2.3l-4.6-11l-2.7,13.4h-4.8l4.5-22.3h4.2l5.6,13.9l10.9-13.9
			H361z" />
			<path class="st" d="M370.1,159.7c-1.6-0.8-2.9-1.9-3.8-3.4c-0.9-1.5-1.3-3.2-1.3-5.1c0-2.5,0.6-4.8,1.7-6.8
			c1.2-2,2.8-3.6,4.9-4.8c2.1-1.2,4.5-1.8,7.2-1.8c2.2,0,4.2,0.4,5.8,1.2c1.6,0.8,2.9,1.9,3.8,3.4c0.9,1.5,1.3,3.2,1.3,5.1
			c0,2.5-0.6,4.8-1.7,6.8c-1.2,2-2.8,3.6-4.9,4.8c-2.1,1.2-4.5,1.8-7.2,1.8C373.7,160.9,371.8,160.5,370.1,159.7z M380.7,155.4
			c1.2-0.8,2.2-1.8,2.8-3.2c0.7-1.3,1-2.8,1-4.4c0-1.7-0.5-3.1-1.6-4.1c-1.1-1-2.6-1.5-4.5-1.5c-1.6,0-3.1,0.4-4.3,1.2
			c-1.2,0.8-2.2,1.8-2.8,3.2c-0.7,1.3-1,2.8-1,4.4c0,1.7,0.5,3.1,1.6,4.1c1.1,1,2.6,1.5,4.5,1.5C378,156.5,379.4,156.1,380.7,155.4z
			" />
			<path class="st" d="M418.9,138.2l-14.1,22.3h-5.1l-5.2-22.3h5.3l3.6,15.9l10.1-15.9H418.9z" />
			<path class="st"
				d="M427.5,142.4l-1,4.8h10.4l-0.8,4h-10.4l-1,5.2h12.2l-0.9,4.1h-17.3l4.5-22.3h16.9l-0.9,4.1H427.5z" />
			<path class="st" d="M466.4,152.8l-1.5,7.7h-5.2l1.6-8l-5.7-14.3h5.2l4,9.9l8-9.9h5.3L466.4,152.8z" />
			<path class="st" d="M482.9,159.7c-1.6-0.8-2.9-1.9-3.8-3.4c-0.9-1.5-1.3-3.2-1.3-5.1c0-2.5,0.6-4.8,1.7-6.8
			c1.2-2,2.8-3.6,4.9-4.8c2.1-1.2,4.5-1.8,7.2-1.8c2.2,0,4.2,0.4,5.8,1.2c1.6,0.8,2.9,1.9,3.8,3.4c0.9,1.5,1.3,3.2,1.3,5.1
			c0,2.5-0.6,4.8-1.7,6.8c-1.2,2-2.8,3.6-4.9,4.8c-2.1,1.2-4.5,1.8-7.2,1.8C486.5,160.9,484.6,160.5,482.9,159.7z M493.5,155.4
			c1.2-0.8,2.2-1.8,2.8-3.2c0.7-1.3,1-2.8,1-4.4c0-1.7-0.5-3.1-1.6-4.1c-1.1-1-2.6-1.5-4.5-1.5c-1.6,0-3.1,0.4-4.3,1.2
			c-1.2,0.8-2.2,1.8-2.8,3.2c-0.7,1.3-1,2.8-1,4.4c0,1.7,0.5,3.1,1.6,4.1c1.1,1,2.6,1.5,4.5,1.5
			C490.8,156.5,492.3,156.1,493.5,155.4z" />
			<path class="st" d="M510.5,158.8c-1.6-1.4-2.4-3.3-2.4-5.7c0-0.7,0.1-1.5,0.3-2.4l2.5-12.5h5.2l-2.5,12.4
			c-0.1,0.7-0.2,1.3-0.2,1.9c0,1.3,0.4,2.3,1.1,3c0.7,0.7,1.8,1,3.2,1c1.6,0,2.8-0.5,3.8-1.4c0.9-0.9,1.6-2.4,2-4.5l2.5-12.4h5.1
			l-2.5,12.7c-1.4,6.6-5.2,10-11.4,10C514.3,160.9,512.1,160.2,510.5,158.8z" />
			<path class="st" d="M554.7,150.5c-1.1,1.5-2.7,2.5-4.7,3.2l3.9,6.9h-5.4l-3.5-6.2h-4.4l-1.2,6.2h-5.2l4.5-22.3h9.1
			c2.8,0,4.9,0.6,6.4,1.8c1.5,1.2,2.3,2.9,2.3,5.1C556.4,147.2,555.8,149,554.7,150.5z M549.8,149c0.9-0.8,1.4-1.9,1.4-3.4
			c0-1.1-0.4-1.9-1.1-2.4c-0.7-0.5-1.8-0.8-3.1-0.8h-4.1l-1.6,7.7h4.4C547.5,150.2,548.8,149.8,549.8,149z" />
			<path class="st" d="M601.1,138.2l-4.4,22.3h-4.8l2.6-13.3l-8.5,10.9h-2.3l-4.6-11l-2.7,13.4h-4.8l4.5-22.3h4.2l5.6,13.9
			l10.9-13.9H601.1z" />
			<path class="st" d="M620.3,155.8h-10.4l-2.9,4.8h-5.5l14.4-22.3h5.1l5.5,22.3h-5.2L620.3,155.8z M619.4,151.8l-1.9-8.6l-5.3,8.6
			H619.4z" />
			<path class="st" d="M651.9,150.5c-1.1,1.5-2.7,2.5-4.7,3.2l3.9,6.9h-5.4l-3.5-6.2h-4.4l-1.2,6.2h-5.2l4.5-22.3h9.1
			c2.8,0,4.9,0.6,6.4,1.8c1.5,1.2,2.3,2.9,2.3,5.1C653.6,147.2,653,149,651.9,150.5z M647,149c0.9-0.8,1.4-1.9,1.4-3.4
			c0-1.1-0.4-1.9-1.1-2.4c-0.7-0.5-1.8-0.8-3.1-0.8h-4.1l-1.6,7.7h4.4C644.7,150.2,646,149.8,647,149z" />
			<path class="st"
				d="M670.9,148.6l7.7,12h-5.8l-5.7-8.7l-3.6,3.2l-1.1,5.5h-5.1l4.5-22.3h5.1l-2,10.2l11.6-10.2h6.2L670.9,148.6z" />
			<path class="st"
				d="M692,142.4l-1,4.8h10.4l-0.8,4h-10.4l-1,5.2h12.2l-0.9,4.1h-17.3l4.5-22.3h16.9l-0.9,4.1H692z" />
			<path class="st" d="M715.4,142.4h-7.1l0.9-4.2h19.4l-0.9,4.2h-7.1l-3.6,18.1h-5.2L715.4,142.4z" />
		</g>
	</g>
</svg>