<svg preserveAspectRatio="xMidYMid meet" data-bbox="0 0 2101 376" xmlns="http://www.w3.org/2000/svg"
    viewBox="0 0 2101 376" height="376" width="2101" data-type="tint" role="presentation" aria-hidden="true"
    aria-label="">
    <g fill-rule="evenodd">
        <path fill-rule="nonzero" fill="white"
            d="M631 273V87h-36.8v148.8H483.8V87H447v186zm368 0v-74.4h-36.8v37.2H851.8V87H815v186zm293.4 0V124.2h73.6V87h-184v37.2h73.6V273zm294.4 0v-74.4h36.8l64.975 74.4H1734l-64.975-74.4H1734V87h-184v186zM1697 161h-110v-37h110zm261.975 112L2009 142.8l35.65 93H2009V273h92l-73.6-186h-36.8L1917 273z">
        </path>
        <path fill="#FFFFFF"
            d="M0 119.302h.48a.7.7 0 0 1 .159-.56 4.4 4.4 0 0 1 1.598-.722 1.2 1.2 0 0 1 .319-.4q.6-.03.959-.48.472-.12.958-.08a.7.7 0 0 1 .16-.56 2.64 2.64 0 0 1 1.597-.561.7.7 0 0 1 .16-.56q.473-.12.959-.08v-.481h1.118v-.64a5.5 5.5 0 0 0 1.358-.481q.67-.66 1.517-1.041.474-.12.959-.08a.7.7 0 0 1 .16-.56 3.4 3.4 0 0 1 1.597-.561.7.7 0 0 1 .16-.56q.473-.12.959-.08v-.481h1.118v-.64a25 25 0 0 0 1.597-.561l.32-.48q.6-.031.958-.48.474-.12.959-.081a.7.7 0 0 1 .16-.56 18 18 0 0 0 2.236-1.041q0-.16.16-.16.37-.078.32-.48a3.9 3.9 0 0 1 1.517.16q.12 33.387.08 66.776v84.872h.48v.48q.485-.039.958.08.2.244.16.561.84-.149 1.357.48.345.157.72.16v.481q.329-.037.638.08.675.398 1.278.881.378.192.8.24.262.404.718.56a.8.8 0 0 1 .08.481h1.118v.48q.486-.039.959.08.2.244.16.561h.958v.48q.826-.178.799.641.485-.04.958.08a15 15 0 0 1 2.237 1.441q.31.119.639.08v.64h1.118v.481q.744-.127 1.118.48.828.314 1.598.721.2.244.16.56.485-.039.958.08.36.45.959.481.2.244.16.56a3.8 3.8 0 0 1 1.597.561q.2.244.16.56 1.067.154 2.076.481-.028.82.8.64v.481q.484-.04.958.08.2.244.16.56.84-.149 1.357.481.345.156.72.16v.48h.638v.481q.486-.04.959.08.2.244.16.56.485-.039.958.08a6.3 6.3 0 0 0 1.757.961q.2.244.16.56.84-.147 1.358.481.345.156.719.16v.48q.768.321 1.597.561.2.244.16.56.485-.039.959.08a7.4 7.4 0 0 1 1.917 1.362l.958.32.16.32q1.37.644 2.716 1.282v.48q.486-.04.958.08.2.244.16.56.486-.039.959.08a6.43 6.43 0 0 0 2.875 1.602q.2.244.16.56a3.2 3.2 0 0 1 1.917.961q.37.23.799.16v.48q.485-.039.958.081.2.244.16.56.486-.039.958.08.263.404.72.561a.8.8 0 0 1 .08.48q.485-.039.958.08.846.38 1.517 1.041.656.334 1.358.48v.641h1.119v.48q.879-.192 1.278.561.754.26 1.437.64.2.244.16.561.486-.039.959.08.418.543 1.118.64.995.64 1.917 1.362a32 32 0 0 1 3.674 1.842q.2.243.16.56.84-.15 1.358.48.345.156.719.16v.481q.33-.038.639.08.674.397 1.278.88 1.344.716 2.716 1.282v.48q.485-.039.958.08.2.244.16.56.486-.039.958.08.534.461 1.119.882 1.376.664 2.715 1.36 1.136.744 2.248 1.457l1.107.706q.695.148 1.278.56.2.244.16.56.485-.039.959.08.358.45.958.481a5 5 0 0 0 1.757 1.121q.2.244.16.56.485-.039.959.08.459.437 1.118.561a.7.7 0 0 0 .4.48q.67.3 1.357.561.2.244.16.56.486-.039.958.08.544.462 1.119.881a14 14 0 0 1 1.597.72q.2.245.16.561.486-.039.958.08 1.492 1.065 3.036 2.002 1.344.715 2.716 1.281v.48q.485-.039.958.08.2.244.16.561.84-.15 1.358.48.345.157.719.16v.481q.774.277 1.597.56a19 19 0 0 0 3.994 2.323q.383.571 1.118.56.262.404.72.56a.8.8 0 0 1 .079.48q.486-.039.959.081.358.45.958.48.752.735 1.757 1.121.2.244.16.56.486-.039.959.08.459.437 1.118.561a.7.7 0 0 0 .4.48q.67.301 1.357.561.2.244.16.56.84-.148 1.358.481.345.156.719.16v.48a2.64 2.64 0 0 1 1.597.561q.2.244.16.56h1.118v.481q.495.045.959.24.817.585 1.757 1.041l.16.32q1.076.332 2.077.801v.48h.639v.48q.486-.039.958.081.2.244.16.56.487-.039.958.08a7.4 7.4 0 0 1 1.917 1.362q.46.195.959.24.2.243.16.56.487-.039.958.08.544.462 1.118.881.285.224.64.16v.48q.486-.039.958.08.2.245.16.561.487-.039.958.08a7.8 7.8 0 0 0 2.876 1.682.49.49 0 0 1 .16.48 2.93 2.93 0 0 1 1.597.48v.641q.566-.039 1.118.08.36.45.959.48.752.735 1.757 1.122.2.243.16.56h1.118v.48q.501-.043.959.16a.49.49 0 0 1 .16.481h.639a.49.49 0 0 1 .16-.48q.457-.205.958-.16v-.48a3.4 3.4 0 0 0 1.917-1.042q.39-.118.799-.08a.49.49 0 0 1 .16-.48q.931-.28 1.757-.64v-.481q.716.016 1.118-.56.472-.12.958-.08a.7.7 0 0 1 .16-.561 3.8 3.8 0 0 1 1.598-.56.7.7 0 0 1 .16-.561q.471-.12.958-.08v-.48h1.118v-.641q.701-.51 1.598-.48a.7.7 0 0 1 .16-.561q.471-.12.958-.08v-.48a.77.77 0 0 0 .639-.16q.677-.375 1.278-.882.472-.119.959-.08a.7.7 0 0 1 .16-.56 3.8 3.8 0 0 1 1.597-.56v-.48q.716.014 1.118-.561.472-.12.959-.08a.8.8 0 0 1 .08-.48q.455-.159.718-.561.473-.12.959-.08a.7.7 0 0 1 .16-.56q.471-.12.958-.081v-.48a.77.77 0 0 0 .64-.16q.574-.42 1.117-.881.735.011 1.119-.56a11.6 11.6 0 0 0 2.875-1.682q.473-.12.959-.08a.7.7 0 0 1 .16-.56 5.1 5.1 0 0 0 1.757-1.122 7.05 7.05 0 0 0 2.716-1.601q.471-.12.958-.08a.7.7 0 0 1 .16-.56q.472-.12.958-.08v-.481h.64v-.48q.716.015 1.118-.561.472-.12.958-.08a.7.7 0 0 1 .16-.56q.686-.26 1.358-.561a.7.7 0 0 0 .4-.48 19 19 0 0 0 3.993-2.322 3.4 3.4 0 0 0 1.598-.961 1.65 1.65 0 0 0 1.118-.64q.472-.12.958-.08a.7.7 0 0 1 .16-.561 5 5 0 0 0 1.757-1.121 8.5 8.5 0 0 0 2.716-1.522q.455-.232.959-.16a.7.7 0 0 1 .16-.56q.471-.12.958-.08v-.48a31 31 0 0 0 2.716-1.282q.944-.764 1.917-1.44a2.17 2.17 0 0 0 1.118-.561q.472-.12.959-.08a.8.8 0 0 1 .08-.48q.455-.159.718-.561.422-.048.8-.24.603-.484 1.277-.881.31-.119.64-.08v-.48l.958-.16V37.471q.04-3.204-.08-6.406-.326.212-.719.16v.481q-.717-.016-1.118.56-.473.12-.959.08a.7.7 0 0 1-.16.561 6.8 6.8 0 0 0-1.757.56v.48q-.716-.015-1.118.561-.472.12-.959.08a.7.7 0 0 1-.16.56 1.5 1.5 0 0 0-1.118.481q-.471.12-.958.08a.7.7 0 0 1-.16.56q-.66.444-1.438.641l-.32.48q-.598.032-.958.481-.471.12-.958.08a.7.7 0 0 1-.16.56 6.8 6.8 0 0 0-1.757.561v.48q-.716-.015-1.119.561-.471.12-.958.08a.7.7 0 0 1-.16.56q-.498.047-.958.24a50 50 0 0 0-3.036 2.003q-.599.03-.958.48-.472.12-.959.08a.7.7 0 0 1-.16.56 8.9 8.9 0 0 0-2.875 1.602q-.472.12-.959.08a.7.7 0 0 1-.16.56q-.47.12-.958.08v.48a1.13 1.13 0 0 0-.799.161q-1.618.99-3.195 2.002-.471.119-.958.08a.7.7 0 0 1-.16.56 8.9 8.9 0 0 0-2.875 1.602q-.473.119-.959.08a.7.7 0 0 1-.16.56q-.471.12-.958.08v.48q-1.371.567-2.716 1.282-.605.484-1.278.88-.472.12-.959.08a.7.7 0 0 1-.16.561q-.687.26-1.357.56a.7.7 0 0 0-.4.481q-.658.125-1.118.56-.472.12-.958.08a.7.7 0 0 1-.16.561 32 32 0 0 1-3.674 1.842 1.2 1.2 0 0 1-.32.4 8.5 8.5 0 0 0-2.716 1.521l-.958.32q-.375.608-1.119.48v131.473q.08 44.523-.16 89.036-.667.138-.798-.48a3.8 3.8 0 0 1-1.598-.561.7.7 0 0 1-.16-.56q-.486.039-.958-.08-.36-.45-.958-.481a4.7 4.7 0 0 0-1.917-1.121.7.7 0 0 1-.16-.56q-.486.039-.959-.08a181 181 0 0 0-3.195-2.002 1.13 1.13 0 0 0-.798-.16v-.481q-.487.04-.959-.08a.7.7 0 0 1-.16-.56q-.84.149-1.358-.481a1.8 1.8 0 0 0-.719-.16v-.48a1.34 1.34 0 0 1-.639-.08 37 37 0 0 0-4.952-2.723.7.7 0 0 1-.16-.56q-.486.039-.958-.08a2.17 2.17 0 0 0-1.118-.56.7.7 0 0 0-.4-.481q-.67-.301-1.358-.56a.7.7 0 0 1-.16-.561q-.486.039-.958-.08-.36-.45-.959-.48a50 50 0 0 0-3.035-2.002 3.2 3.2 0 0 0-.958-.24.7.7 0 0 1-.16-.561 1.57 1.57 0 0 1-.959-.16 8.5 8.5 0 0 0-2.715-1.522 1.2 1.2 0 0 1-.32-.4 31 31 0 0 0-2.716-1.281v-.48q-.486.039-.958-.08a.7.7 0 0 1-.16-.561q-.486.04-.958-.08a8.9 8.9 0 0 0-2.876-1.601.7.7 0 0 1-.16-.56q-.486.039-.958-.081-.36-.45-.959-.48l-.32-.48a9 9 0 0 1-1.437-.641.7.7 0 0 1-.16-.56q-.486.039-.958-.08a33 33 0 0 1-4.154-2.483 2.3 2.3 0 0 0-.799-.24 1.2 1.2 0 0 1-.32-.4 22.5 22.5 0 0 0-2.715-1.282v-.48q-.486.04-.959-.08a.7.7 0 0 1-.16-.56q-.485.039-.958-.08a50 50 0 0 0-3.035-2.002 3.2 3.2 0 0 0-.959-.24q-.543-.462-1.118-.881a6 6 0 0 1-1.597-.72.7.7 0 0 1-.16-.561q-.486.039-.959-.08a2.17 2.17 0 0 0-1.118-.56.7.7 0 0 0-.4-.481q-.67-.301-1.357-.56a.7.7 0 0 1-.16-.561q-.486.039-.959-.08a23 23 0 0 0-2.875-1.762 2.46 2.46 0 0 0-1.118-.4v-.48q-.486.039-.959-.08a.7.7 0 0 1-.16-.561q-.485.039-.958-.08a7.4 7.4 0 0 1-1.917-1.361l-.959-.32-.16-.32a16 16 0 0 1-2.076-.802v-.48a3.8 3.8 0 0 1-1.598-.56.7.7 0 0 1-.16-.561h-1.118v-.48q-.486.039-.958-.08a.7.7 0 0 1-.16-.56 4.1 4.1 0 0 1-1.598-.561.7.7 0 0 1-.16-.56q-.485.039-.958-.081-1.567-1.01-3.195-2.002a1.13 1.13 0 0 0-.799-.16v-.48q-.485.039-.958-.08a.7.7 0 0 1-.16-.56q-.486.039-.958-.08a3.4 3.4 0 0 0-1.917-1.042v-.48q-.486.04-.959-.08a.7.7 0 0 1-.16-.56q-.84.148-1.358-.481a1.8 1.8 0 0 0-.719-.16v-.48q-.824-.361-1.757-.641a.5.5 0 0 1-.16-.48 9 9 0 0 1-2.076-.641v-.48a3.8 3.8 0 0 1-1.598-.561.7.7 0 0 1-.16-.56q-.485.039-.958-.08a1.5 1.5 0 0 0-1.118-.48.7.7 0 0 1-.16-.561q-.915.056-1.118-.801v-89.196q-.04-32.108.08-64.215.213-.14.479-.16.547.546 1.358.56.352.171.32.561a5.3 5.3 0 0 1 1.916.64v.481h.799v.48q.486-.038.958.08a.7.7 0 0 1 .16.561q.84-.15 1.358.48.345.156.719.16v.481q.33-.037.639.08 1.576 1.01 3.195 2.002.37.228.799.16v.48q.486-.039.958.08a.7.7 0 0 1 .16.56q.504-.071.959.161.21.354.639.4a.7.7 0 0 1 .16.56q.535-.07.958.161a9.6 9.6 0 0 0 2.875 1.441v.64h1.119v.481q.485-.04.958.08a.7.7 0 0 1 .16.56h.958v.481q.828-.178.8.64.485-.038.958.08.358.45.958.481a.7.7 0 0 1 .16.56q.88.243 1.757.481v.64h1.119v.481q.743-.127 1.118.48.827.312 1.597.721a.7.7 0 0 1 .16.56q.486-.038.959.08.358.45.958.48a.7.7 0 0 1 .16.561h.639v.48q.486-.037.958.08.46.438 1.119.561a.7.7 0 0 0 .4.48q.669.302 1.357.561a.7.7 0 0 1 .16.56q.486-.037.958.08.36.45.959.481a5 5 0 0 0 1.757 1.121.7.7 0 0 1 .16.56q.486-.038.958.08.46.438 1.119.561a.7.7 0 0 0 .399.48q.67.302 1.358.561a.7.7 0 0 1 .16.56q.485-.038.958.08.545.462 1.118.881.828.312 1.598.721.16.195.166.436l-.006.124q.446-.058.814.092l.144.069q1.252.873 2.716 1.52.205.167.32.401 1.344.716 2.715 1.281v.48q.486-.037.959.08a.7.7 0 0 1 .16.561q.84-.15 1.357.48.345.156.72.16v.481q.329-.037.638.08.46.437 1.119.56l.16.321a31 31 0 0 0 2.715 1.281v.48q.486-.038.959.08a.7.7 0 0 1 .16.561q.485-.04.958.08 1.263 1.154 2.876 1.682l.16.32q1.317.7 2.715 1.28v.481q.486-.039.959.08a.7.7 0 0 1 .16.56q.485-.037.958.081a32 32 0 0 0 3.035 2.002 7.7 7.7 0 0 1 1.598.64v.64h1.118v.481q.487-.039.958.08.161.195.167.437l-.007.124h.64q-.041-33.55.08-67.097a10.2 10.2 0 0 0 2.955-1.682q.471-.12.958-.08a.7.7 0 0 1 .16-.56 29.5 29.5 0 0 1 3.674-1.842 7.1 7.1 0 0 0 1.917-1.361 1.65 1.65 0 0 0 1.118-.64q.473-.12.959-.08a.7.7 0 0 1 .16-.561q.471-.12.958-.08v-.48q1.371-.567 2.716-1.282a30 30 0 0 0 3.035-2.001q.473-.12.959-.08a.7.7 0 0 1 .16-.561q.471-.12.958-.08v-.48a.77.77 0 0 0 .64-.16q.676-.375 1.277-.881.472-.12.959-.08a.7.7 0 0 1 .16-.56q.471-.12.958-.081v-.48a4.9 4.9 0 0 0 1.917-1.041q.39-.12.799-.08a.7.7 0 0 1 .16-.56 6.4 6.4 0 0 0 2.875-1.602q.472-.12.959-.08a.7.7 0 0 1 .16-.56q.471-.12.958-.08v-.481h1.118v-.64a7.7 7.7 0 0 1 1.598-.641q.604-.483 1.278-.881.471-.12.958-.08a.7.7 0 0 1 .16-.56 3.36 3.36 0 0 1 1.597-.561.7.7 0 0 1 .16-.56q.472-.12.959-.08v-.481h1.118v-.64a25 25 0 0 0 1.598-.561l.319-.48q.6-.032.959-.48.471-.12.958-.08a.7.7 0 0 1 .16-.561q.686-.26 1.358-.56a.7.7 0 0 0 .4-.481q.657-.125 1.117-.56.473-.12.959-.08a.7.7 0 0 1 .16-.561 3.4 3.4 0 0 1 1.597-.56v-.481q1.002-.469 2.077-.8a50 50 0 0 0 3.035-2.003q.472-.119.959-.08a.7.7 0 0 1 .16-.56 32 32 0 0 1 3.674-1.842q.114-.234.32-.4.821-.285 1.597-.56v-.48q.716.015 1.118-.561.472-.12.959-.08a.7.7 0 0 1 .16-.56q.471-.12.958-.081v-.48q1.371-.567 2.716-1.282.604-.483 1.278-.88.31-.118.639-.08v-.48q.716.015 1.118-.561.472-.12.959-.08a.7.7 0 0 1 .16-.56q.471-.12.958-.08v-.481a3.4 3.4 0 0 0 1.917-1.041q.732-.037 1.118-.64a8.5 8.5 0 0 0 2.716-1.522q.455-.232.958-.16a.7.7 0 0 1 .16-.56A5.65 5.65 0 0 0 250.972 0h1.757q.724.364 1.278.96.46.195.959.241.854.59 1.757 1.04v.481q.487-.039.958.08a.7.7 0 0 1 .16.56q.486-.037.959.08.6.507 1.278.882.284.223.639.16v.48q.486-.04.958.08a.7.7 0 0 1 .16.56q.487-.038.958.08a3.2 3.2 0 0 0 1.758 1.042v.48q.486-.04.958.08a.7.7 0 0 1 .16.56q.486-.038.959.08 1.651 1.098 3.274 2.163.671.3 1.358.56a.7.7 0 0 1 .16.56q.486-.038.959.08.36.45.958.481l.32.48q.755.259 1.437.641a.7.7 0 0 1 .16.56q.486-.039.959.08 1.471 1.05 3.035 2.002 1.345.716 2.716 1.281v.48q.487-.037.958.08a.7.7 0 0 1 .16.561q.84-.15 1.358.48.345.156.719.16v.481q.33-.037.639.08a179 179 0 0 0 3.195 2.002q.371.229.799.16v.48q.486-.038.958.08a.7.7 0 0 1 .16.561q.503-.072.958.16a8.5 8.5 0 0 0 2.716 1.522q.752.735 1.758 1.12a.7.7 0 0 1 .16.56q.486-.037.958.081.46.437 1.118.56.089.338.4.48.67.302 1.357.561a.7.7 0 0 1 .16.56q.486-.037.959.08.543.463 1.118.882.826.31 1.597.72a.7.7 0 0 1 .16.56q.487-.037.959.08a7.4 7.4 0 0 1 1.917 1.362q.377.192.799.24.385.605 1.118.64.541.364 1.07.706l.527.336q.37.077.32.48.487-.04.958.08a.7.7 0 0 1 .16.56q.486-.038.959.08.923.742 1.917 1.362.992.4 1.917.88.263.404.719.561a.8.8 0 0 1 .08.48q.486-.039.958.08.46.437 1.118.561.089.337.4.48.67.302 1.358.56a.7.7 0 0 1 .16.561q.486-.039.958.08.36.45.958.48.752.735 1.758 1.122a.7.7 0 0 1 .16.56q.486-.039.958.08a11.6 11.6 0 0 0 2.875 1.682l.16.32q1.078.349 2.077.8v.481h.639v.48q.487-.038.958.08a.7.7 0 0 1 .16.561q.487-.04.959.08a7.4 7.4 0 0 1 1.917 1.361l.958.32.16.32q1.318.702 2.716 1.282v.48q.487-.039.958.08a.7.7 0 0 1 .16.56q.486-.037.959.081.263.402.719.56a.8.8 0 0 1 .08.48q.486-.037.958.08.846.382 1.518 1.042.655.333 1.357.48v.64h1.119v.481q.487-.039.958.08a.7.7 0 0 1 .16.56 3.8 3.8 0 0 1 1.598.561.7.7 0 0 1 .16.56q.486-.038.958.08.42.543 1.118.641.717.6 1.598.961a.7.7 0 0 1 .16.56q.486-.038.958.08.6.507 1.278.881.284.224.639.16v.48q.486-.037.958.081a.7.7 0 0 1 .16.56q.84-.15 1.358.48.345.157.719.161v.48q.224.257.16.641h.479q.168 4.559.167 9.192l-.007 1.857v110.334q-.04 7.687.08 15.373.245 1.87.399 3.683v.16q-.318.162 0 .32v68.219a30 30 0 0 0-5.112 2.802q-.554.12-1.118.08a.7.7 0 0 1-.16.56q-.472.12-.959.081v.48h-1.118v.64q-.887.244-1.757.641a49 49 0 0 0-3.355 2.002q-.472.12-.959.08a.7.7 0 0 1-.16.56 1.5 1.5 0 0 0-1.118.481q-.471.12-.958.08a.7.7 0 0 1-.16.56q-1.181.459-2.236 1.042a1.7 1.7 0 0 0-.64.56q-.471.12-.958.08a.7.7 0 0 1-.16.56q-.472.12-.958.08v.481h-.959q-.18.248-.32.56-.47.12-.958.08v.481a1.44 1.44 0 0 1-.878-.16q-.12-62.853-.08-125.707.08-40.995-.16-81.99a14 14 0 0 0-1.917-1.04.7.7 0 0 1-.16-.561q-.487.039-.958-.08a1102 1102 0 0 1-4.953-3.123 1.13 1.13 0 0 0-.798-.16v-.48q-.487.038-.959-.08a.7.7 0 0 1-.16-.561 1.57 1.57 0 0 1-.958-.16.8.8 0 0 0-.64-.4.7.7 0 0 1-.159-.561q-.486.04-.958-.08-.36-.45-.959-.48a5 5 0 0 0-1.757-1.121.7.7 0 0 1-.16-.56q-.486.038-.958-.081-1.472-1.05-3.036-2.002a31 31 0 0 0-2.716-1.28v-.481q-.486.039-.958-.08a.7.7 0 0 1-.16-.56q-.487.037-.958-.08a20 20 0 0 0-1.917-1.362q-.992-.4-1.917-.88a1.38 1.38 0 0 0-.72-.561.8.8 0 0 1-.08-.48q-.486.038-.958-.08a2.17 2.17 0 0 0-1.118-.561.7.7 0 0 0-.4-.48q-.67-.302-1.357-.561a.7.7 0 0 1-.16-.56q-.84.15-1.358-.48a1.8 1.8 0 0 0-.719-.161v-.48a3.8 3.8 0 0 1-1.597-.561.7.7 0 0 1-.16-.56q-.486.039-.959-.08a7.4 7.4 0 0 1-1.917-1.362l-.958-.32-.16-.32a32 32 0 0 0-2.716-1.281v-.48q-.487.037-.958-.08a.7.7 0 0 1-.16-.561q-.486.039-.959-.08a1.38 1.38 0 0 0-.718-.56.8.8 0 0 1-.08-.481q-.487.039-.959-.08a5.2 5.2 0 0 1-1.517-1.041 5.5 5.5 0 0 0-1.358-.48v-.641h-1.119v-.48a4.2 4.2 0 0 1-1.757-.641v-.48q-.486.038-.958-.08a.7.7 0 0 1-.16-.561q-.486.04-.959-.08a19 19 0 0 0-1.118-.88.77.77 0 0 0-.639-.161v-.48q-.486.039-.958-.08a.7.7 0 0 1-.16-.56q-.487.037-.959-.081a1.38 1.38 0 0 0-.719-.56q-.038 33.99-.168 67.914l-.071 16.958q.067.46-.16.8a829 829 0 0 0-.32 31.707v59.25a127 127 0 0 0 0 3.124q-.154 1.308-.319 2.642-.24 24.26-.16 48.521v22.9q.083 11.371-.24 22.739.008.687-.399 1.12.04.885-.08 1.762a1.4 1.4 0 0 1-.723.172l-.155-.012q-1.058.694-2.077 1.522-1.406.725-2.876 1.36a2.53 2.53 0 0 1-1.917.962.7.7 0 0 1-.16.56q-.472.12-.958.08v.48a3.4 3.4 0 0 0-1.917 1.042q-.472.119-.959.08a.7.7 0 0 1-.16.56q-.47.12-.958.08v.48a.77.77 0 0 0-.639.16q-.574.421-1.118.881-.472.12-.959.08a.7.7 0 0 1-.16.561q-.472.12-.958.08v.48a.77.77 0 0 0-.639.16q-.677.375-1.278.881-.472.12-.958.08a.7.7 0 0 1-.16.561q-.472.12-.959.08v.48q-1.345.638-2.715 1.282l-.16.32-.959.32a7.4 7.4 0 0 1-1.917 1.361q-.471.12-.958.08a.7.7 0 0 1-.16.56 3.8 3.8 0 0 1-1.598.561v.48q-1.001.47-2.076.801l-.16.32q-1.59.652-2.876 1.682-.471.12-.958.08a.7.7 0 0 1-.16.56q-.66.442-1.438.641l-.32.48q-.598.031-.958.48-.471.12-.958.081a.7.7 0 0 1-.16.56q-.687.26-1.358.561a.7.7 0 0 0-.4.48 2.17 2.17 0 0 0-1.118.56q-.471.12-.958.08a.7.7 0 0 1-.16.561 5 5 0 0 0-1.757 1.121q-.6.031-.959.48-.471.12-.958.08a.8.8 0 0 1-.08.481 1.4 1.4 0 0 0-.719.48l-.958.32-.16.321-.959.32a101 101 0 0 1-5.75 3.523 1.57 1.57 0 0 1-.96.16.7.7 0 0 1-.16.561q-.47.12-.958.08v.48a1.13 1.13 0 0 0-.798.16q-1.62.992-3.195 2.002-.31.119-.64.08v.48q-.716-.014-1.118.561-.471.12-.958.08a.7.7 0 0 1-.16.56q-.472.12-.958.081v.48a31 31 0 0 0-2.716 1.281 46 46 0 0 0-3.036 2.002q-.471.12-.958.08a.7.7 0 0 1-.16.56q-.472.12-.958.08v.481a511 511 0 0 1-2.716 1.281 50 50 0 0 0-3.035 2.002q-.473.12-.959.08a.7.7 0 0 1-.16.56q-.77.41-1.597.721-.575.42-1.119.88-.471.12-.958.081a.7.7 0 0 1-.16.56q-.687.26-1.358.56a.7.7 0 0 0-.4.481 2.17 2.17 0 0 0-1.117.56q-.473.12-.959.08a.7.7 0 0 1-.16.561 9 9 0 0 1-1.437.64l-.32.481q-.6.031-.958.48-.473.12-.959.08a.7.7 0 0 1-.16.561q-.686.26-1.358.56-.246.081-.24.321h-1.597q.007-.24-.24-.32-.67-.301-1.357-.56a.7.7 0 0 1-.16-.561q-.486.039-.959-.08-.36-.45-.958-.48a5 5 0 0 0-1.757-1.122.7.7 0 0 1-.16-.56q-.486.039-.959-.08a2.17 2.17 0 0 0-1.118-.56.7.7 0 0 0-.4-.481q-.67-.301-1.357-.56a.7.7 0 0 1-.16-.561q-.487.04-.958-.08-.544-.461-1.119-.88a14 14 0 0 1-1.597-.721.7.7 0 0 1-.16-.561q-.486.04-.959-.08a50 50 0 0 0-3.035-2.002 511 511 0 0 1-2.716-1.28v-.481q-.485.039-.958-.08a.7.7 0 0 1-.16-.56q-.486.039-.958-.08a46 46 0 0 0-3.036-2.003 31 31 0 0 0-2.716-1.28v-.481q-.485.04-.958-.08a.7.7 0 0 1-.16-.56q-.84.149-1.358-.481a1.8 1.8 0 0 0-.719-.16v-.48a1.34 1.34 0 0 1-.639-.08q-1.575-1.01-3.195-2.002a1.13 1.13 0 0 0-.798-.16v-.48q-.486.039-.959-.08a.7.7 0 0 1-.16-.561 1.57 1.57 0 0 1-.958-.16 101 101 0 0 1-5.751-3.524l-.959-.32-.16-.32-.958-.32a1.4 1.4 0 0 0-.719-.48.8.8 0 0 1-.08-.481q-.486.039-.958-.08-.36-.45-.959-.48a5 5 0 0 0-1.757-1.122.7.7 0 0 1-.16-.56q-.486.04-.958-.08a2.17 2.17 0 0 0-1.119-.56.7.7 0 0 0-.4-.481q-.669-.301-1.357-.56a.7.7 0 0 1-.16-.561q-.486.04-.958-.08-.36-.45-.959-.48l-.32-.48a4.7 4.7 0 0 1-1.437-.641.7.7 0 0 1-.16-.56q-.486.039-.958-.081a11.6 11.6 0 0 0-2.876-1.681q-.383-.573-1.118-.56a2.54 2.54 0 0 0-1.118-.721 11 11 0 0 0-1.598-.881.7.7 0 0 1-.16-.56q-.486.039-.958-.08a7.4 7.4 0 0 1-1.917-1.362l-.959-.32-.16-.32q-1.37-.644-2.715-1.282v-.48q-.486.04-.959-.08a.7.7 0 0 1-.16-.56q-.485.039-.958-.08-.6-.507-1.278-.881a.78.78 0 0 0-.64-.16v-.48q-.484.039-.958-.081a.7.7 0 0 1-.16-.56q-.485.039-.958-.08-.544-.462-1.118-.881a.78.78 0 0 0-.64-.16v-.48q-.485.039-.958-.08a.7.7 0 0 1-.16-.561q-.485.039-.958-.08a3.4 3.4 0 0 0-1.917-1.041v-.48q-.486.039-.959-.08a.7.7 0 0 1-.16-.561 2.53 2.53 0 0 1-1.916-.961 30 30 0 0 1-1.758-.72 50 50 0 0 0-3.035-2.002 3.2 3.2 0 0 0-.958-.24.7.7 0 0 1-.16-.561 1.57 1.57 0 0 1-.959-.16.8.8 0 0 0-.639-.4.7.7 0 0 1-.16-.561q-.485.04-.958-.08-.36-.45-.959-.48a5.1 5.1 0 0 0-1.757-1.121.7.7 0 0 1-.16-.56q-.485.039-.958-.081a1.5 1.5 0 0 0-1.118-.48.7.7 0 0 1-.16-.56 6.2 6.2 0 0 1-1.598-.561.7.7 0 0 1-.16-.56q-.485.039-.958-.08-.359-.45-.958-.481l-.32-.48-1.438-.641a.7.7 0 0 1-.16-.56q-.485.039-.958-.08a11.6 11.6 0 0 0-2.876-1.682.5.5 0 0 1-.16-.48q-.84.148-1.357-.481a1.8 1.8 0 0 0-.719-.16v-.48a3.8 3.8 0 0 1-1.598-.561.7.7 0 0 1-.16-.56q-.485.039-.958-.08-.6-.508-1.278-.881a.78.78 0 0 0-.639-.16v-.48a1.9 1.9 0 0 1-.958-.161.5.5 0 0 1-.16-.48q-.485.039-.959-.08a4 4 0 0 0-1.118-.881.78.78 0 0 0-.639-.16v-.48q-.486.039-.958-.08a.7.7 0 0 1-.16-.561q-.84.149-1.358-.48a1.8 1.8 0 0 0-.719-.16v-.481h-.799v-.48a1.9 1.9 0 0 1-.958-.16.5.5 0 0 1-.16-.481 1.57 1.57 0 0 1-.959-.16 10 10 0 0 0-1.118-.801.78.78 0 0 0-.639-.16v-.48q-.486.039-.958-.08a.7.7 0 0 1-.16-.561q-.84.15-1.358-.48a1.8 1.8 0 0 0-.719-.16v-.481h-.799v-.48q-.485.039-.958-.08a.7.7 0 0 1-.16-.561 2.1 2.1 0 0 1-.799-.08q-.55-.438-1.118-.88a1.13 1.13 0 0 0-.799-.161v-.48q-.486.039-.958-.08a.7.7 0 0 1-.16-.561q-.486.04-.959-.08a1.37 1.37 0 0 0-.718-.56.8.8 0 0 1-.08-.481q-.486.04-.959-.08a2.17 2.17 0 0 0-1.118-.56q-.374-.609-1.118-.48v-.481h-.64v-.64h-1.118v-.481q-.485.039-.958-.08a.7.7 0 0 1-.16-.56h-.958v-.481q-.828.177-.8-.64-.484.039-.958-.08a2.17 2.17 0 0 0-1.118-.561l-.16-.32a7.7 7.7 0 0 1-1.597-.641v-.64h-1.119v-.481q-.485.04-.958-.08a7.85 7.85 0 0 0-2.876-1.682l-.16-.32a32 32 0 0 0-2.715-1.281v-.48q-.486.039-.959-.08a.7.7 0 0 1-.16-.56q-.485.039-.958-.081a32 32 0 0 0-3.035-2.002 7 7 0 0 1-1.598-.64v-.64H12.94v-.481q-.485.039-.959-.08a.7.7 0 0 1-.16-.56 2.64 2.64 0 0 1-1.597-.561.7.7 0 0 1-.16-.56q-.485.039-.958-.08a5.2 5.2 0 0 1-1.518-1.042 5.4 5.4 0 0 0-1.358-.48v-.64q-.564.039-1.118-.08-.36-.45-.958-.481l-.32-.48-1.438-.641a.7.7 0 0 1-.16-.56q-.485.039-.958-.08A2.35 2.35 0 0 0 0 272.391zm112.466-6.886h-.958q-.24 4.876-.16 10.729v85.192q.772.147 1.438.56.2.244.16.561l.193-.009.193.003a3 3 0 0 1 .572.086q1.032.595 1.917 1.361.992.401 1.917.881 1.263 1.154 2.875 1.682a.7.7 0 0 0 .4.48q.67.301 1.358.56.2.244.16.561l.202-.01.2.011q.201.02.396.08.615.504 1.278.88a.77.77 0 0 0 .523.173l.116-.013v.48l.194-.009q.387-.007.765.09.2.243.16.56.504-.072.958.16a8.5 8.5 0 0 0 2.716 1.521 5 5 0 0 0 1.757 1.121q.2.244.16.56l.194-.008.192.003a3 3 0 0 1 .572.086q.42.543 1.119.64.668.705 1.597.961a19 19 0 0 0 3.994 2.322.7.7 0 0 0 .4.48q.67.3 1.357.561.2.244.16.56l.194-.009.193.004a3 3 0 0 1 .572.086q.325.594.97.573l.148-.013v.48h.639v.48q.486-.039.958.081.2.244.16.56l.167-.015.164.001q.325.02.628.175a8.5 8.5 0 0 0 2.715 1.52q.752.735 1.758 1.122.2.243.16.56l.193-.009.193.003a3 3 0 0 1 .572.086 305 305 0 0 1 4.952 3.123q.309.191.658.175l.141-.015v.48l.194-.009.193.004a3 3 0 0 1 .572.086q.2.243.16.56a4.1 4.1 0 0 1 1.597.56q.2.244.16.561l.194-.01.192.004q.289.014.572.086.402.576 1.118.56v.481h.64v.48l.193-.009q.387-.007.765.09.2.243.16.56l.194-.01.193.004q.288.014.571.086.814.75 1.837 1.201a54 54 0 0 0 .08-4.163v-.041q.08-46.18-.16-92.358-.402-.739-1.278-.72a.94.94 0 0 0-.639-.481.7.7 0 0 1-.16-.56q-.486.038-.958-.08-.36-.45-.958-.481A5.1 5.1 0 0 0 161.35 141a.7.7 0 0 1-.16-.56q-.486.038-.958-.08a2.17 2.17 0 0 0-1.118-.561.7.7 0 0 0-.4-.48q-.67-.302-1.357-.56a.7.7 0 0 1-.16-.561q-.486.039-.959-.08a20 20 0 0 0-1.118-.881 14 14 0 0 1-1.597-.72.7.7 0 0 1-.16-.561q-.486.039-.959-.08a7.4 7.4 0 0 1-1.917-1.362 8 8 0 0 0-.958-.32.5.5 0 0 1-.16-.48 2.1 2.1 0 0 1-.799-.08 9 9 0 0 0-1.278-.881.77.77 0 0 0-.639-.16v-.48q-.486.038-.958-.08a.7.7 0 0 1-.167-.437l.007-.124q-.486.04-.959-.08-.401-.576-1.118-.56v-.481q-.825-.36-1.757-.64a.5.5 0 0 1-.16-.481 2.1 2.1 0 0 1-.799-.08q-.402-.576-1.118-.56v-.481a6.8 6.8 0 0 0-1.757-.56.7.7 0 0 1-.16-.56q-.486.038-.959-.081a7.04 7.04 0 0 0-2.715-1.601 5.1 5.1 0 0 0-1.758-1.121.7.7 0 0 1-.16-.56q-.485.037-.958-.08a1.5 1.5 0 0 0-1.118-.481.7.7 0 0 1-.16-.56h-.958v-.481l-.114.02-.105.01h-.096q-.507-.027-.484-.67-.486.038-.959-.08-.402-.577-1.118-.561v-.48a2.64 2.64 0 0 1-1.598-.561.7.7 0 0 1-.16-.56h-1.118v-.481q-.495-.045-.958-.24a14 14 0 0 0-1.757-.961.7.7 0 0 1-.16-.56q-.486.038-.959-.08-.361-.662-1.118-.561v-.48h-.639v-.48q-.486.037-.958-.08a.7.7 0 0 1-.16-.561h-1.118v-.48a4.3 4.3 0 0 1-1.758-.641v-.48q-.486.037-.958-.08a.7.7 0 0 1-.16-.561">
        </path>
    </g>
</svg>